<svg width="679" height="333" viewBox="0 0 679 333" fill="none" xmlns="http://www.w3.org/2000/svg"><path opacity=".5" d="M326.994 86.657v3.211c0 2.812 1.057 5.508 2.939 7.496 1.882 1.987 4.434 3.104 7.095 3.104h24.8c3.217 0 6.389.806 9.254 2.352l2.856 1.542a3.949 3.949 0 004.043-.165 4.275 4.275 0 001.45-1.591 4.571 4.571 0 00.528-2.138v-13.81c0-1.392-.259-2.77-.763-4.057a10.63 10.63 0 00-2.174-3.439 10.006 10.006 0 00-3.254-2.297 9.571 9.571 0 00-3.84-.807h-32.9c-2.661 0-5.213 1.116-7.095 3.104-1.882 1.988-2.939 4.684-2.939 7.495z" fill="#E40B14"/><path d="M515.575 40.173v3.21c0 2.812-1.057 5.508-2.939 7.496-1.881 1.988-4.434 3.105-7.095 3.105h-24.799c-3.218 0-6.389.806-9.255 2.351l-2.856 1.543a3.956 3.956 0 01-2.042.475 3.98 3.98 0 01-2.001-.64 4.284 4.284 0 01-1.45-1.592 4.57 4.57 0 01-.528-2.137V40.173c0-1.392.259-2.77.763-4.056a10.647 10.647 0 012.174-3.44 10.002 10.002 0 013.255-2.297 9.564 9.564 0 013.839-.807h32.9c2.661 0 5.214 1.117 7.095 3.105 1.882 1.988 2.939 4.684 2.939 7.495z" fill="#E40B14"/><path opacity=".5" d="M559.226 163.846v4.388c0 1.903.358 3.786 1.055 5.543a14.541 14.541 0 003.003 4.699 13.835 13.835 0 004.495 3.139 13.345 13.345 0 005.301 1.101h10.744a27.126 27.126 0 0112.783 3.218l3.938 2.103a5.5 5.5 0 005.586-.222 5.862 5.862 0 002.003-2.177 6.17 6.17 0 00.729-2.922v-18.87c0-3.842-1.459-7.526-4.058-10.243-2.598-2.716-6.122-4.243-9.796-4.243H573.08c-3.674 0-7.198 1.527-9.796 4.243-2.598 2.717-4.058 6.401-4.058 10.243z" fill="#E40B14"/><path d="M256.084 11.556v3.211c0 1.392.259 2.77.763 4.056a10.665 10.665 0 002.174 3.44 10.002 10.002 0 003.255 2.297 9.564 9.564 0 003.839.807h7.781c3.218 0 6.391.805 9.258 2.351l2.856 1.543c.63.34 1.333.503 2.041.473a3.979 3.979 0 001.999-.64 4.273 4.273 0 001.449-1.591 4.564 4.564 0 00.528-2.136v-13.81c-.002-2.81-1.06-5.502-2.941-7.488-1.881-1.985-4.43-3.101-7.089-3.102h-15.882c-2.659 0-5.209 1.115-7.09 3.101-1.881 1.986-2.939 4.68-2.941 7.488z" fill="#E40B14"/><path d="M267.891 13.94l5.521 6.02a.902.902 0 00.295.216.852.852 0 00.999-.217l5.517-6.019a4.34 4.34 0 00.881-1.475 4.538 4.538 0 00-.154-3.412 4.289 4.289 0 00-1.009-1.38c-1.563-1.406-3.891-1.154-5.324.41l-.561.611-.562-.611c-1.433-1.564-3.744-1.798-5.323-.41a4.278 4.278 0 00-1.009 1.38 4.537 4.537 0 00-.152 3.412 4.37 4.37 0 00.881 1.475z" fill="#fff"/><path opacity=".5" d="M168.332 128.05v4.918c0 2.132.398 4.243 1.17 6.212a16.31 16.31 0 003.331 5.267 15.344 15.344 0 004.986 3.52 14.658 14.658 0 005.881 1.235h17.13a29.771 29.771 0 0114.18 3.608l4.369 2.357a6.052 6.052 0 006.194-.254 6.553 6.553 0 002.221-2.437c.531-1 .811-2.127.812-3.274V128.05c0-4.306-1.619-8.435-4.501-11.48-2.883-3.044-6.792-4.755-10.867-4.755H183.7c-4.076 0-7.985 1.711-10.867 4.755-2.882 3.045-4.501 7.174-4.501 11.48z" fill="#E40B14"/><path d="M207.911 131.784l-8.45 9.224a1.326 1.326 0 01-.991.447c-.185 0-.368-.04-.538-.116a1.372 1.372 0 01-.452-.331l-8.456-9.224a6.674 6.674 0 01-1.348-2.258 6.96 6.96 0 01.236-5.223 6.565 6.565 0 011.545-2.113c2.392-2.158 5.958-1.767 8.153.628l.86.936.86-.936c2.2-2.395 5.761-2.786 8.154-.628a6.59 6.59 0 011.543 2.114 6.953 6.953 0 01.233 5.222c-.3.842-.759 1.61-1.349 2.258z" fill="#E40B14"/><path opacity=".5" d="M568.09 111.959v4.918c0 2.132-.398 4.243-1.17 6.213a16.317 16.317 0 01-3.331 5.266 15.344 15.344 0 01-4.986 3.52 14.659 14.659 0 01-5.881 1.236h-17.131a29.758 29.758 0 00-14.179 3.607l-4.369 2.357a6.065 6.065 0 01-3.128.727 6.107 6.107 0 01-3.066-.981 6.553 6.553 0 01-2.221-2.437 7 7 0 01-.812-3.273v-21.153c0-4.306 1.619-8.435 4.501-11.48 2.882-3.044 6.791-4.755 10.867-4.755h29.538c4.076 0 7.985 1.71 10.867 4.755 2.882 3.045 4.501 7.174 4.501 11.48z" fill="#E40B14"/><path d="M528.511 115.693l8.45 9.224a1.326 1.326 0 00.991.447c.185 0 .368-.04.538-.116.171-.077.324-.19.452-.331l8.456-9.224a6.672 6.672 0 001.347-2.258c.3-.842.433-1.739.392-2.637a6.91 6.91 0 00-.627-2.586 6.58 6.58 0 00-1.545-2.113c-2.393-2.158-5.958-1.767-8.153.628l-.86.936-.86-.936c-2.2-2.395-5.761-2.786-8.154-.628a6.59 6.59 0 00-1.543 2.114 6.961 6.961 0 00-.233 5.223c.3.841.759 1.609 1.349 2.257z" fill="#fff"/><path opacity=".5" d="M292.276 164.656v3.82a13.21 13.21 0 01-.909 4.827 12.667 12.667 0 01-2.588 4.092 11.92 11.92 0 01-3.873 2.735c-1.449.634-3.002.96-4.57.96h-13.309a23.14 23.14 0 00-11.017 2.802l-3.394 1.832a4.712 4.712 0 01-2.43.564 4.734 4.734 0 01-2.382-.761 5.09 5.09 0 01-1.726-1.894 5.435 5.435 0 01-.631-2.543v-16.434c0-3.346 1.258-6.554 3.498-8.919 2.239-2.366 5.276-3.695 8.443-3.695h22.948c3.167 0 6.204 1.329 8.443 3.695 2.239 2.365 3.497 5.573 3.497 8.919z" fill="#E40B14"/><path d="M261.526 167.557l6.566 7.166c.099.11.219.197.351.257a1.012 1.012 0 00.837 0c.132-.06.252-.147.351-.257l6.57-7.166a5.205 5.205 0 001.047-1.755 5.395 5.395 0 00-.183-4.058 5.121 5.121 0 00-1.201-1.641c-1.859-1.677-4.629-1.373-6.334.488l-.668.727-.669-.727c-1.709-1.861-4.475-2.165-6.334-.488a5.108 5.108 0 00-1.2 1.642 5.384 5.384 0 00-.18 4.058c.232.654.589 1.25 1.047 1.754z" fill="#fff"/><path d="M461.875 130.251v3.079c0 2.427-.452 4.83-1.331 7.072a18.589 18.589 0 01-3.793 5.995 17.463 17.463 0 01-5.676 4.005 16.688 16.688 0 01-6.696 1.407h-12.2c-5.606 0-11.133 1.404-16.126 4.096l-4.992 2.667a6.9 6.9 0 01-3.558.834 6.939 6.939 0 01-3.49-1.112 7.452 7.452 0 01-2.529-2.773 7.948 7.948 0 01-.921-3.724v-21.559c.014-4.891 1.864-9.577 5.143-13.03 3.28-3.454 7.722-5.393 12.353-5.393h26.332c4.631.003 9.072 1.946 12.35 5.401 3.277 3.456 5.124 8.143 5.134 13.035z" fill="#E40B14"/><path d="M420.48 135.603c1.929 0 3.493-1.652 3.493-3.689 0-2.038-1.564-3.69-3.493-3.69-1.93 0-3.494 1.652-3.494 3.69 0 2.037 1.564 3.689 3.494 3.689zm10.276 0c1.929 0 3.494-1.652 3.494-3.689 0-2.038-1.565-3.69-3.494-3.69-1.929 0-3.493 1.652-3.493 3.69 0 2.037 1.564 3.689 3.493 3.689zm10.271 0c1.929 0 3.493-1.652 3.493-3.689 0-2.038-1.564-3.69-3.493-3.69-1.93 0-3.494 1.652-3.494 3.69 0 2.037 1.564 3.689 3.494 3.689z" fill="#F8F8F8"/><path d="M.807 172.983v2.154c0 1.698.317 3.379.932 4.947a12.994 12.994 0 002.653 4.193 12.227 12.227 0 003.97 2.802 11.67 11.67 0 004.684.984h8.534c3.921 0 7.787.982 11.28 2.865l3.491 1.866a4.825 4.825 0 002.49.583 4.848 4.848 0 002.44-.778 5.208 5.208 0 001.77-1.939 5.561 5.561 0 00.643-2.606v-15.08c-.01-3.421-1.303-6.699-3.597-9.114-2.294-2.416-5.401-3.772-8.641-3.772H13.037c-3.24.002-6.346 1.36-8.638 3.778-2.293 2.417-3.584 5.696-3.592 9.117z" fill="#E40B14"/><path d="M29.763 176.727c-1.35 0-2.443-1.155-2.443-2.581 0-1.425 1.094-2.58 2.443-2.58 1.35 0 2.444 1.155 2.444 2.58 0 1.426-1.094 2.581-2.444 2.581zm-7.188 0c-1.35 0-2.444-1.155-2.444-2.581 0-1.425 1.094-2.58 2.444-2.58 1.35 0 2.444 1.155 2.444 2.58 0 1.426-1.095 2.581-2.444 2.581zm-7.185 0c-1.35 0-2.443-1.155-2.443-2.581 0-1.425 1.094-2.58 2.443-2.58 1.35 0 2.444 1.155 2.444 2.58 0 1.426-1.094 2.581-2.444 2.581z" fill="#F8F8F8"/><path d="M677.305 174.41v1.791c0 2.85-1.072 5.583-2.98 7.598-1.908 2.016-4.496 3.148-7.195 3.148h-7.095c-3.26 0-6.474.816-9.378 2.382l-2.893 1.558a4.013 4.013 0 01-2.069.485 4.028 4.028 0 01-2.03-.647 4.317 4.317 0 01-1.47-1.612 4.615 4.615 0 01-.536-2.166V174.41c0-2.85 1.072-5.584 2.98-7.599 1.908-2.015 4.496-3.148 7.195-3.148h15.31c2.696.004 5.28 1.138 7.186 3.153 1.905 2.015 2.975 4.746 2.975 7.594z" fill="#F2858A"/><path d="M653.232 177.512c1.122 0 2.031-.961 2.031-2.146s-.909-2.146-2.031-2.146-2.032.961-2.032 2.146.91 2.146 2.032 2.146zm5.972 0c1.122 0 2.032-.961 2.032-2.146s-.91-2.146-2.032-2.146c-1.122 0-2.031.961-2.031 2.146s.909 2.146 2.031 2.146zm5.977 0c1.122 0 2.032-.961 2.032-2.146s-.91-2.146-2.032-2.146c-1.122 0-2.032.961-2.032 2.146s.91 2.146 2.032 2.146z" fill="#F8F8F8"/><path d="M65.204 314.185c-15.893-1.492-26.066-6.433-26.066-6.433l5.22-13.424-11.626-5.68-6.73 18.764s-4.06 14.17 14.48 15.662l24.605-.094.117-8.795z" fill="#F7DCDC" stroke="#EA2127" stroke-width="1.4" stroke-linecap="round" stroke-linejoin="round"/><path d="M44.433 294.284l2.682-6.86-.09 23.03" stroke="#EC1C24" stroke-width="1.4" stroke-linecap="round" stroke-linejoin="round"/><path d="M82.181 260.793s-.638 8.077 8.609 11.446H55.402c9.247-3.369 8.609-11.446 8.609-11.446h18.17z" fill="#F1E0DF" stroke="#EA2127" stroke-width="1.4" stroke-linecap="round" stroke-linejoin="round"/><path d="M74.216 263.169c13.385 0 24.235-11.459 24.235-25.595s-10.85-25.595-24.234-25.595c-13.385 0-24.235 11.459-24.235 25.595s10.85 25.595 24.234 25.595z" fill="#F7DCDC" stroke="#EA2127" stroke-width="1.4" stroke-linecap="round" stroke-linejoin="round"/><path d="M48.638 238.747s-7.69-18.734 2.373-27.478c-.165.174-2.6-1.37-2.6-1.37s1.139-3.252 7.47-3.252c0 .34-2.277-3.087-2.277-3.087s3.087-4.455 18.177-4.969c0-.348-.158-2.746-.158-2.746s25.476.855 20.448 14.569c.165.174 12.134-3.325 7.881 23.769a67.594 67.594 0 01-2.613 8.578s-1.708-17.264-4.116-19.662c-2.407-2.398-.837-4.289-8.622-1.174-7.785 3.116-16.716-3.426-16.716-3.426s-9.74-2.058-10.392 3.086c-.651 5.144.624 2.536-5.055 14.88-.165-.347-2.504 7.969-2.504 7.969l-1.296-5.687z" fill="#EA2127"/><path d="M85.35 314.185c15.893-1.492 26.065-6.433 26.065-6.433l-5.22-13.424 11.661-5.68 6.667 18.764s4.061 14.17-14.48 15.662l-24.604-.094-.09-8.795z" fill="#F7DCDC" stroke="#EA2127" stroke-width="1.4" stroke-linecap="round" stroke-linejoin="round"/><path d="M32.47 289.148l2.388-6.759c3.183-11.939 8.608-10.041 14.404-10.041h51.713c5.775 0 12.47 1.644 14.404 8.918l2.429 7.244m-11.715 5.709l-2.497-5.491v21.683m-36.602 1.666l-.85-5.817h19.069l-.851 5.875" stroke="#EC1C24" stroke-width="1.4" stroke-linecap="round" stroke-linejoin="round"/><path d="M72.667 312.417h-7.449c-.356 0-.645.305-.645.681v1.558c0 .376.289.681.645.681h7.45c.355 0 .644-.305.644-.681v-1.558c0-.376-.289-.681-.645-.681zm0 3.478h-7.449c-.356 0-.645.305-.645.681v1.557c0 .376.289.681.645.681h7.45c.355 0 .644-.305.644-.681v-1.557c0-.376-.289-.681-.645-.681zm0 3.253h-7.449c-.356 0-.645.304-.645.681v1.557c0 .376.289.681.645.681h7.45c.355 0 .644-.305.644-.681v-1.557c0-.377-.289-.681-.645-.681zm0 3.593h-7.449c-.356 0-.645.305-.645.681v1.557c0 .377.289.681.645.681h7.45c.355 0 .644-.304.644-.681v-1.557c0-.376-.289-.681-.645-.681zm12.798-10.324h-7.45c-.355 0-.644.305-.644.681v1.558c0 .376.289.681.645.681h7.45c.355 0 .644-.305.644-.681v-1.558c0-.376-.289-.681-.645-.681zm0 3.478h-7.45c-.355 0-.644.305-.644.681v1.557c0 .376.289.681.645.681h7.45c.355 0 .644-.305.644-.681v-1.557c0-.376-.289-.681-.645-.681zm0 3.253h-7.45c-.355 0-.644.304-.644.681v1.557c0 .376.289.681.645.681h7.45c.355 0 .644-.305.644-.681v-1.557c0-.377-.289-.681-.645-.681zm0 3.593h-7.45c-.355 0-.644.305-.644.681v1.557c0 .377.289.681.645.681h7.45c.355 0 .644-.304.644-.681v-1.557c0-.376-.289-.681-.645-.681z" fill="#F7DCDC" stroke="#EA2127" stroke-width="1.4" stroke-linecap="round" stroke-linejoin="round"/><path d="M38.432 290.85h71.577l-2.806 34.832H41.237l-2.805-34.832zm68.765 34.854h-65.96v3.644h65.96v-3.644z" fill="#fff" stroke="#EC1C24" stroke-width="1.4" stroke-linecap="round" stroke-linejoin="round"/><path d="M74.217 312.896c2.42 0 4.383-2.073 4.383-4.63 0-2.556-1.962-4.629-4.383-4.629-2.42 0-4.383 2.073-4.383 4.629 0 2.557 1.962 4.63 4.383 4.63z" fill="#fff" stroke="#EC1C24" stroke-width="1.4" stroke-linecap="round" stroke-linejoin="round"/><path d="M317.932 294.943l2.633-6.738-.087 22.617" stroke="#EC1C24" stroke-width="1.4" stroke-linecap="round" stroke-linejoin="round"/><path d="M356.777 262.287s-.626 7.933 8.447 11.241h-34.745c9.074-3.308 8.448-11.241 8.448-11.241h17.85z" fill="#CB7071" stroke="#EA2127" stroke-width="1.4" stroke-linecap="round" stroke-linejoin="round"/><path d="M347.851 263.354c13.802 0 24.991-11.817 24.991-26.394 0-14.578-11.189-26.395-24.991-26.395s-24.991 11.817-24.991 26.395c0 14.577 11.189 26.394 24.991 26.394z" fill="#CB7071" stroke="#EA2127" stroke-width="1.4" stroke-linecap="round" stroke-linejoin="round"/><path d="M377.127 247.525a10.09 10.09 0 003.496-3.692 10.8 10.8 0 001.348-5.023 7.794 7.794 0 00-1.118-4.814c-.881-1.423-2.195-2.486-3.726-3.012 0 0 4.271-2.135 2.021-9.626-2.25-7.492-8.541-6.012-8.541-6.012s3.132-5.115-2.021-10.223c-7.686-5.414-12.24.597-12.24.597s-1.711-6.908-7.975-7.185c-6.265-.278-9.39 6.915-9.39 6.915s-5.699-4.511-10.819-.904c-5.119 3.607-2.566 10.829-2.566 10.829s-5.389 0-8.541 4.809c-3.153 4.809 1.711 10.522 1.711 10.522s-3.416.306-4.844 6.923c-1.428 6.616 5.126 10.223 5.126 10.223s-4.843 4.205-2.02 11.12c2.822 6.915 11.417 3.593 11.417 3.593l12.651-.2c-5.773-1.718-10.767-5.575-14.069-10.864-3.301-5.289-4.689-11.657-3.91-17.938.779-6.281 3.674-12.056 8.154-16.268 4.48-4.212 10.246-6.58 16.244-6.67 5.997-.09 11.825 2.104 16.417 6.18 4.591 4.076 7.64 9.761 8.588 16.017.948 6.255-.269 12.662-3.427 18.048-3.158 5.386-8.046 9.391-13.771 11.282l12.415-.192s7.969 2.134 11.384-3.906-1.994-10.529-1.994-10.529z" fill="#EA2127"/><path d="M323.718 232.186s10.899 2.526 12.495-6.453c.263.278 9.303 7.862 15.682-1.686 0 .278 3.455 8.986 14.354 4.774.27-.285-.673 7.861 6.588 8.139 7.262.277 1.651-12.913 1.651-12.913l-15.931-14.883-20.209-1.124-15.432 14.606.802 9.54z" fill="#EA2127"/><path d="M358.138 314.5c15.607-1.466 25.597-6.318 25.597-6.318l-5.126-13.183 11.451-5.577 6.588 18.39s3.988 13.923-14.22 15.389l-24.162-.093-.128-8.608z" fill="#CB7071" stroke="#EA2127" stroke-width="1.4" stroke-linecap="round" stroke-linejoin="round"/><path d="M306.209 289.898l2.344-6.637c3.126-11.725 8.454-9.861 14.146-9.861h50.804c5.678 0 12.246 1.615 14.146 8.758l2.384 7.114" stroke="#EC1C24" stroke-width="1.4" stroke-linecap="round" stroke-linejoin="round"/><path d="M338.347 314.5c-15.607-1.466-25.597-6.318-25.597-6.318l5.126-13.183-11.417-5.577-6.575 18.376s-3.974 13.923 14.213 15.389l24.163-.093.087-8.594z" fill="#CB7071" stroke="#EA2127" stroke-width="1.4" stroke-linecap="round" stroke-linejoin="round"/><path d="M313.101 288.276h70.291l-2.755 34.206h-64.781l-2.755-34.206zm67.535 34.228h-64.775v3.578h64.775v-3.578z" fill="#fff" stroke="#EC1C24" stroke-width="1.4" stroke-linecap="round" stroke-linejoin="round"/><path d="M348.25 309.925c2.377 0 4.304-2.035 4.304-4.546s-1.927-4.546-4.304-4.546c-2.378 0-4.305 2.035-4.305 4.546s1.927 4.546 4.305 4.546z" fill="#fff" stroke="#EC1C24" stroke-width="1.4" stroke-linecap="round" stroke-linejoin="round"/><path d="M598.7 233.394s-2.312 33.062-11.154 37.178c0 0 4.081-1.098 39.856-1.098v-57.206L598.7 233.394z" fill="#E31E26"/><path d="M651.479 233.394s1.632 33.474 12.787 39.784c0 0-3.945-5.35-41.489-3.841v-57.069l28.702 21.126z" fill="#E31E26"/><path d="M634.747 257.539s-.681 8.231 9.249 11.661h-37.951c9.93-3.43 9.25-11.661 9.25-11.661h19.452z" fill="#E28D8E"/><path d="M634.747 257.539s-.681 8.231 9.249 11.661h-37.951c9.93-3.43 9.25-11.661 9.25-11.661h19.452z" stroke="#E31E26" stroke-width="1.4" stroke-miterlimit="10" stroke-linecap="round" stroke-linejoin="round"/><path d="M651.071 233.805c0 14.542-11.699 26.203-25.981 26.203-14.419 0-25.982-11.798-25.982-26.203 0-14.542 11.699-26.203 25.982-26.203 14.282 0 25.981 11.798 25.981 26.203z" fill="#E28D8E"/><path d="M651.071 233.805c0 14.542-11.699 26.203-25.981 26.203-14.419 0-25.982-11.798-25.982-26.203 0-14.542 11.699-26.203 25.982-26.203 14.282 0 25.981 11.798 25.981 26.203z" stroke="#E31E26" stroke-width="1.4" stroke-miterlimit="10" stroke-linecap="round" stroke-linejoin="round"/><path d="M624.001 207.74s8.434 20.99 26.661 21.813c0 0-1.088-20.029-26.661-21.813z" fill="#E31E26"/><path d="M627.539 214.188s-12.243 26.066-28.43 22.91c0 0-1.496-27.3 25.981-29.632l2.449 6.722z" fill="#E31E26"/><path d="M635.564 312.551c17.004-1.509 27.886-6.585 27.886-6.585l-5.577-13.719 12.514-5.761 7.21 19.206s4.353 14.542-15.507 16.051c0 0-24.485-.138-26.39-.138l-.136-9.054z" fill="#E28D8E"/><path d="M635.564 312.551c17.004-1.509 27.886-6.585 27.886-6.585l-5.577-13.719 12.514-5.761 7.21 19.206s4.353 14.542-15.507 16.051c0 0-24.485-.138-26.39-.138l-.136-9.054z" stroke="#E92529" stroke-width="1.4" stroke-miterlimit="10" stroke-linecap="round" stroke-linejoin="round"/><path d="M578.84 286.897l2.584-6.859c3.401-12.21 9.25-10.289 15.371-10.289h55.499c6.258 0 13.331 1.646 15.507 9.191l2.585 7.408" stroke="#E31E26" stroke-width="1.4" stroke-miterlimit="10" stroke-linecap="round" stroke-linejoin="round"/><path d="M633.116 324.349l-1.088 6.859h-13.603l-1.088-6.722m-1.36-14.13l-.953-5.899h20.404l-.816 6.036m23.26-18.383l-2.721-5.624v22.224m-63.388-16.463l2.856-7.133-.136 23.596" stroke="#EC2127" stroke-width="1.4" stroke-miterlimit="10" stroke-linecap="round" stroke-linejoin="round"/><path d="M614.071 312.551c-17.003-1.509-27.885-6.585-27.885-6.585l5.577-13.719-12.515-5.761-7.209 19.206s-4.353 14.542 15.507 16.051c0 0 24.485-.138 26.389-.138l.136-9.054z" fill="#E28D8E"/><path d="M614.071 312.551c-17.003-1.509-27.885-6.585-27.885-6.585l5.577-13.719-12.515-5.761-7.209 19.206s-4.353 14.542 15.507 16.051c0 0 24.485-.138 26.389-.138l.136-9.054z" stroke="#E92529" stroke-width="1.4" stroke-miterlimit="10" stroke-linecap="round" stroke-linejoin="round"/><path d="M621.962 313.786h-8.026c-.408 0-.68-.275-.68-.686v-1.646c0-.412.272-.686.68-.686h8.026c.408 0 .68.274.68.686v1.646c0 .274-.272.686-.68.686z" fill="#E28D8E"/><path d="M621.962 313.786h-8.026c-.408 0-.68-.275-.68-.686v-1.646c0-.412.272-.686.68-.686h8.026c.408 0 .68.274.68.686v1.646c0 .274-.272.686-.68.686z" stroke="#E92529" stroke-width="1.4" stroke-miterlimit="10" stroke-linecap="round" stroke-linejoin="round"/><path d="M621.962 317.353h-8.026c-.408 0-.68-.275-.68-.686v-1.647c0-.411.272-.686.68-.686h8.026c.408 0 .68.275.68.686v1.647c0 .274-.272.686-.68.686z" fill="#E28D8E"/><path d="M621.962 317.353h-8.026c-.408 0-.68-.275-.68-.686v-1.647c0-.411.272-.686.68-.686h8.026c.408 0 .68.275.68.686v1.647c0 .274-.272.686-.68.686z" stroke="#E92529" stroke-width="1.4" stroke-miterlimit="10" stroke-linecap="round" stroke-linejoin="round"/><path d="M621.962 320.645h-8.026c-.408 0-.68-.274-.68-.686v-1.646c0-.412.272-.686.68-.686h8.026c.408 0 .68.274.68.686v1.646c0 .412-.272.686-.68.686z" fill="#E28D8E"/><path d="M621.962 320.645h-8.026c-.408 0-.68-.274-.68-.686v-1.646c0-.412.272-.686.68-.686h8.026c.408 0 .68.274.68.686v1.646c0 .412-.272.686-.68.686z" stroke="#E92529" stroke-width="1.4" stroke-miterlimit="10" stroke-linecap="round" stroke-linejoin="round"/><path d="M621.962 324.349h-8.026c-.408 0-.68-.274-.68-.686v-1.646c0-.412.272-.686.68-.686h8.026c.408 0 .68.274.68.686v1.646c0 .275-.272.686-.68.686z" fill="#E28D8E"/><path d="M621.962 324.349h-8.026c-.408 0-.68-.274-.68-.686v-1.646c0-.412.272-.686.68-.686h8.026c.408 0 .68.274.68.686v1.646c0 .275-.272.686-.68.686z" stroke="#E92529" stroke-width="1.4" stroke-miterlimit="10" stroke-linecap="round" stroke-linejoin="round"/><path d="M635.7 313.786h-7.89c-.408 0-.68-.275-.68-.686v-1.646c0-.412.272-.686.68-.686h8.026c.408 0 .68.274.68.686v1.646c-.136.274-.408.686-.816.686z" fill="#E28D8E"/><path d="M635.7 313.786h-7.89c-.408 0-.68-.275-.68-.686v-1.646c0-.412.272-.686.68-.686h8.026c.408 0 .68.274.68.686v1.646c-.136.274-.408.686-.816.686z" stroke="#E92529" stroke-width="1.4" stroke-miterlimit="10" stroke-linecap="round" stroke-linejoin="round"/><path d="M635.7 317.353h-7.89c-.408 0-.68-.275-.68-.686v-1.647c0-.411.272-.686.68-.686h8.026c.408 0 .68.275.68.686v1.647c-.136.274-.408.686-.816.686z" fill="#E28D8E"/><path d="M635.7 317.353h-7.89c-.408 0-.68-.275-.68-.686v-1.647c0-.411.272-.686.68-.686h8.026c.408 0 .68.275.68.686v1.647c-.136.274-.408.686-.816.686z" stroke="#E92529" stroke-width="1.4" stroke-miterlimit="10" stroke-linecap="round" stroke-linejoin="round"/><path d="M635.7 320.645h-7.89c-.408 0-.68-.274-.68-.686v-1.646c0-.412.272-.686.68-.686h8.026c.408 0 .68.274.68.686v1.646c-.136.412-.408.686-.816.686z" fill="#E28D8E"/><path d="M635.7 320.645h-7.89c-.408 0-.68-.274-.68-.686v-1.646c0-.412.272-.686.68-.686h8.026c.408 0 .68.274.68.686v1.646c-.136.412-.408.686-.816.686z" stroke="#E92529" stroke-width="1.4" stroke-miterlimit="10" stroke-linecap="round" stroke-linejoin="round"/><path d="M635.7 324.349h-7.89c-.408 0-.68-.274-.68-.686v-1.646c0-.412.272-.686.68-.686h8.026c.408 0 .68.274.68.686v1.646c-.136.275-.408.686-.816.686z" fill="#E28D8E"/><path d="M635.7 324.349h-7.89c-.408 0-.68-.274-.68-.686v-1.646c0-.412.272-.686.68-.686h8.026c.408 0 .68.274.68.686v1.646c-.136.275-.408.686-.816.686z" stroke="#E92529" stroke-width="1.4" stroke-miterlimit="10" stroke-linecap="round" stroke-linejoin="round"/><path d="M591.899 291.973l2.857-6.996v23.596" stroke="#EC2127" stroke-width="1.4" stroke-miterlimit="10" stroke-linecap="round" stroke-linejoin="round"/><path d="M242.728 269.909v-32.935c0-17.356-13.957-31.296-31.031-31.296-17.209 0-31.031 14.076-31.031 31.296v32.935" fill="#E31E26"/><path d="M242.728 269.909v-32.935c0-17.356-13.957-31.296-31.031-31.296-17.209 0-31.031 14.076-31.031 31.296v32.935" stroke="#E92529" stroke-width="1.4" stroke-miterlimit="10" stroke-linecap="round" stroke-linejoin="round"/><path d="M221.59 259.386s-.678 7.654 8.401 10.797h-34.825c9.079-3.143 8.401-10.797 8.401-10.797h18.023z" fill="#F2E1DF"/><path d="M221.59 259.386s-.678 7.654 8.401 10.797h-34.825c9.079-3.143 8.401-10.797 8.401-10.797h18.023z" stroke="#E31E26" stroke-width="1.4" stroke-miterlimit="10" stroke-linecap="round" stroke-linejoin="round"/><path d="M188.119 228.911h48.105v.137c.678 2.186.949 4.236.949 6.696 0 13.94-11.247 25.283-25.069 25.283s-25.069-11.343-25.069-25.283c0-2.46.271-4.783.949-6.97l.135.137z" fill="#F8DDDC"/><path d="M188.119 228.911h48.105v.137c.678 2.186.949 4.236.949 6.696 0 13.94-11.247 25.283-25.069 25.283s-25.069-11.343-25.069-25.283c0-2.46.271-4.783.949-6.97l.135.137z" stroke="#E31E26" stroke-width="1.4" stroke-miterlimit="10" stroke-linecap="round" stroke-linejoin="round"/><path d="M165.897 287.402l2.575-6.97c3.388-12.299 9.215-10.249 15.448-10.249h55.558c6.233 0 13.415 1.64 15.447 9.156l2.575 7.517" stroke="#E92529" stroke-width="1.4" stroke-miterlimit="10" stroke-linecap="round" stroke-linejoin="round"/><path d="M222.539 312.822c16.938-1.504 27.915-6.56 27.915-6.56l-5.556-13.666 12.466-5.74 7.182 19.132s4.336 14.487-15.448 15.99c0 0-24.391-.137-26.288-.137l-.271-9.019z" fill="#F2E2E2"/><path d="M222.539 312.822c16.938-1.504 27.915-6.56 27.915-6.56l-5.556-13.666 12.466-5.74 7.182 19.132s4.336 14.487-15.448 15.99c0 0-24.391-.137-26.288-.137l-.271-9.019zm-2.575 11.752l-.948 6.833h-13.551l-1.084-6.696m-1.49-13.94l-.813-6.013h20.326l-.948 6.013" stroke="#EC2127" stroke-width="1.4" stroke-miterlimit="10" stroke-linecap="round" stroke-linejoin="round"/><path d="M244.763 292.459l-2.71-5.603v22.139m-63.283-16.4l2.845-6.969v23.506" stroke="#EC2127" stroke-width="1.4" stroke-miterlimit="10" stroke-linecap="round" stroke-linejoin="round"/><path d="M200.993 312.822c-16.938-1.504-27.915-6.56-27.915-6.56l5.556-13.666-12.466-5.74-7.182 19.132s-4.336 14.487 15.448 15.99c0 0 24.391-.137 26.288-.137l.271-9.019z" fill="#F2E2E2"/><path d="M200.993 312.822c-16.938-1.504-27.915-6.56-27.915-6.56l5.556-13.666-12.466-5.74-7.182 19.132s-4.336 14.487 15.448 15.99c0 0 24.391-.137 26.288-.137l.271-9.019z" stroke="#EC2127" stroke-width="1.4" stroke-miterlimit="10" stroke-linecap="round" stroke-linejoin="round"/><path d="M208.987 314.051h-7.995c-.407 0-.678-.273-.678-.683v-1.64c0-.41.271-.683.678-.683h7.995c.406 0 .677.273.677.683v1.64c0 .41-.271.683-.677.683z" fill="#F9DEDC"/><path d="M208.987 314.051h-7.995c-.407 0-.678-.273-.678-.683v-1.64c0-.41.271-.683.678-.683h7.995c.406 0 .677.273.677.683v1.64c0 .41-.271.683-.677.683z" stroke="#EC2127" stroke-width="1.4" stroke-miterlimit="10" stroke-linecap="round" stroke-linejoin="round"/><path d="M208.987 317.604h-7.995c-.407 0-.678-.273-.678-.683v-1.64c0-.41.271-.683.678-.683h7.995c.406 0 .677.273.677.683v1.64c0 .41-.271.683-.677.683z" fill="#F9DEDC"/><path d="M208.987 317.604h-7.995c-.407 0-.678-.273-.678-.683v-1.64c0-.41.271-.683.678-.683h7.995c.406 0 .677.273.677.683v1.64c0 .41-.271.683-.677.683z" stroke="#EC2127" stroke-width="1.4" stroke-miterlimit="10" stroke-linecap="round" stroke-linejoin="round"/><path d="M208.987 320.884h-7.995c-.407 0-.678-.273-.678-.683v-1.64c0-.41.271-.683.678-.683h7.995c.406 0 .677.273.677.683v1.64c0 .41-.271.683-.677.683z" fill="#F9DEDC"/><path d="M208.987 320.884h-7.995c-.407 0-.678-.273-.678-.683v-1.64c0-.41.271-.683.678-.683h7.995c.406 0 .677.273.677.683v1.64c0 .41-.271.683-.677.683z" stroke="#EC2127" stroke-width="1.4" stroke-miterlimit="10" stroke-linecap="round" stroke-linejoin="round"/><path d="M208.987 324.574h-7.995c-.407 0-.678-.273-.678-.683v-1.64c0-.41.271-.683.678-.683h7.995c.406 0 .677.273.677.683v1.64c0 .41-.271.683-.677.683z" fill="#F9DEDC"/><path d="M208.987 324.574h-7.995c-.407 0-.678-.273-.678-.683v-1.64c0-.41.271-.683.678-.683h7.995c.406 0 .677.273.677.683v1.64c0 .41-.271.683-.677.683z" stroke="#EC2127" stroke-width="1.4" stroke-miterlimit="10" stroke-linecap="round" stroke-linejoin="round"/><path d="M222.674 314.051h-7.995c-.406 0-.677-.273-.677-.683v-1.64c0-.41.271-.683.677-.683h7.995c.407 0 .678.273.678.683v1.64c0 .41-.271.683-.678.683z" fill="#F2E2E2"/><path d="M222.674 314.051h-7.995c-.406 0-.677-.273-.677-.683v-1.64c0-.41.271-.683.677-.683h7.995c.407 0 .678.273.678.683v1.64c0 .41-.271.683-.678.683z" stroke="#EC2127" stroke-width="1.4" stroke-miterlimit="10" stroke-linecap="round" stroke-linejoin="round"/><path d="M222.674 317.604h-7.995c-.406 0-.677-.273-.677-.683v-1.64c0-.41.271-.683.677-.683h7.995c.407 0 .678.273.678.683v1.64c0 .41-.271.683-.678.683z" fill="#F9DEDC"/><path d="M222.674 317.604h-7.995c-.406 0-.677-.273-.677-.683v-1.64c0-.41.271-.683.677-.683h7.995c.407 0 .678.273.678.683v1.64c0 .41-.271.683-.678.683z" stroke="#EC2127" stroke-width="1.4" stroke-miterlimit="10" stroke-linecap="round" stroke-linejoin="round"/><path d="M222.674 320.884h-7.995c-.406 0-.677-.273-.677-.683v-1.64c0-.41.271-.683.677-.683h7.995c.407 0 .678.273.678.683v1.64c0 .41-.271.683-.678.683z" fill="#F9DEDC"/><path d="M222.674 320.884h-7.995c-.406 0-.677-.273-.677-.683v-1.64c0-.41.271-.683.677-.683h7.995c.407 0 .678.273.678.683v1.64c0 .41-.271.683-.678.683z" stroke="#EC2127" stroke-width="1.4" stroke-miterlimit="10" stroke-linecap="round" stroke-linejoin="round"/><path d="M222.674 324.574h-7.995c-.406 0-.677-.273-.677-.683v-1.64c0-.41.271-.683.677-.683h7.995c.407 0 .678.273.678.683v1.64c0 .41-.271.683-.678.683z" fill="#F9DEDC"/><path d="M222.674 324.574h-7.995c-.406 0-.677-.273-.677-.683v-1.64c0-.41.271-.683.677-.683h7.995c.407 0 .678.273.678.683v1.64c0 .41-.271.683-.678.683z" stroke="#EC2127" stroke-width="1.4" stroke-miterlimit="10" stroke-linecap="round" stroke-linejoin="round"/><path d="M493.437 258.565s-.678 7.79 8.672 10.933h-35.503c9.215-3.279 8.673-10.933 8.673-10.933h18.158z" fill="#EEB3B3"/><path d="M493.437 258.565s-.678 7.79 8.672 10.933h-35.503c9.215-3.279 8.673-10.933 8.673-10.933h18.158z" stroke="#E31E26" stroke-width="1.4" stroke-miterlimit="10" stroke-linecap="round" stroke-linejoin="round"/><path d="M508.614 236.426c0 13.53-10.841 24.463-24.256 24.463-13.415 0-24.255-10.933-24.255-24.463 0-13.529 10.84-24.462 24.255-24.462 13.28 0 24.256 10.933 24.256 24.462z" fill="#EEB3B3"/><path d="M484.223 260.889c13.396 0 24.255-10.953 24.255-24.463 0-13.51-10.859-24.462-24.255-24.462-13.397 0-24.256 10.952-24.256 24.462s10.859 24.463 24.256 24.463z" stroke="#E92529" stroke-width="1.4" stroke-miterlimit="10" stroke-linecap="round" stroke-linejoin="round"/><path d="M457.122 224.947l-.542 5.466 1.22 5.603s1.897 3.143 3.658.137c.271.137 1.762-8.61 1.762-8.61s2.575-.82 3.252-2.87c.678-2.05 1.355-4.646 1.355-4.646s.407-3.69 5.691-1.504c1.355.547 2.846-.546 4.337.137 1.761.683 3.523-1.093 5.013-.547 2.982 1.094 5.15 1.23 5.15 1.23s2.032-.82 4.878-.41c2.304.274 5.827 2.734 8.672 1.777 1.22-.137 2.981 1.23 3.523 2.733.814 2.05.407 4.373.407 4.373l1.626 3.417.407 5.056s1.49 2.734 3.658 0c.542-.273.678-4.236.678-7.789 0-2.597-1.084-6.287-1.084-6.287s.542-2.186-1.22-6.013c-.813-1.64-3.523-3.416-5.149-4.92-.136-.136-1.22-3.143-5.149-5.466-2.168-1.23-4.743-.82-7.453-1.777-1.626-.546-3.388-1.776-5.014-1.913-.135-.137-2.033.41-4.743.82-2.168.273-5.013-.82-7.859.41-1.626.683-3.388 3.28-5.014 4.51-2.303 1.64-4.336 1.776-5.962 3.416-2.168 2.187-2.168 5.193-3.252 7.38-.949 1.913-2.981 4.1-2.846 6.287z" fill="#E31E26"/><path d="M457.122 224.947l-.542 5.466 1.22 5.603s1.897 3.143 3.658.137c.271.136 1.762-8.61 1.762-8.61s2.575-.82 3.252-2.87c.678-2.05 1.355-4.646 1.355-4.646s.407-3.69 5.691-1.504c1.355.547 2.846-.546 4.337.137 1.761.683 3.523-1.093 5.013-.547 2.982 1.094 5.15 1.23 5.15 1.23s2.032-.82 4.878-.41c2.304.274 5.827 2.734 8.672 1.777 1.22-.137 2.981 1.23 3.523 2.733.814 2.05.407 4.373.407 4.373l1.626 3.417.407 5.056s1.49 2.734 3.658 0c.542-.273.678-4.236.678-7.789 0-2.597-1.084-6.287-1.084-6.287s.542-2.186-1.22-6.013c-.813-1.64-3.523-3.416-5.149-4.92-.136-.136-1.22-3.143-5.149-5.466-2.168-1.23-4.743-.82-7.453-1.777-1.626-.546-3.388-1.776-5.014-1.913-.135-.137-2.033.41-4.743.82-2.168.273-5.013-.82-7.859.41-1.626.683-3.388 3.28-5.014 4.51-2.303 1.64-4.336 1.776-5.962 3.416-2.168 2.187-2.168 5.193-3.252 7.38-.949 1.913-2.981 4.1-2.846 6.287z" stroke="#E92529" stroke-width="1.4" stroke-miterlimit="10" stroke-linecap="round" stroke-linejoin="round"/><path d="M484.223 260.889c13.396 0 24.255-10.953 24.255-24.463 0-13.51-10.859-24.462-24.255-24.462-13.397 0-24.256 10.952-24.256 24.462s10.859 24.463 24.256 24.463z" stroke="#E31E26" stroke-width="1.4" stroke-miterlimit="10" stroke-linecap="round" stroke-linejoin="round"/><path d="M506.039 213.467c-2.71.273-5.149 7.106-5.149 7.106 3.252 0 4.336 2.734 4.336 2.734v12.436c0 2.87-1.219 5.74-3.387 7.79-2.575 2.459-6.098 3.826-9.757 3.826h-.135c-.949-.957-3.253-3.006-7.318-3.006v3.143-3.143c-4.065 0-6.369 1.913-7.317 3.006h-.136c-3.658 0-7.181-1.367-9.756-3.826-2.168-2.05-3.388-4.92-3.388-7.79v-12.436s1.084-2.734 4.336-2.734c0 0-.542-1.503-3.252-1.64-4.607-.41-8.401 3.144-8.401 7.517v3.416c0 11.207 4.743 21.866 13.144 29.793 3.659 3.416 8.401 5.603 13.415 6.286h3.117c5.014-.683 9.756-2.733 13.415-6.286 8.401-7.927 13.144-18.586 13.144-29.793v-3.416c-.271-4.373-2.303-13.256-6.911-12.983zm-19.919 37.172h-4.336c0-1.367 2.303-2.597 2.71-3.143v-.137.137c.406.546 2.71 1.64 2.71 3.143h-1.084z" fill="#E31E26"/><path d="M438.016 286.854l2.574-6.969c3.388-12.3 9.215-10.25 15.448-10.25h55.558c6.233 0 13.415 1.64 15.448 9.156l2.574 7.517" stroke="#E92529" stroke-width="1.4" stroke-miterlimit="10" stroke-linecap="round" stroke-linejoin="round"/><path d="M494.657 312.41c16.939-1.503 27.915-6.559 27.915-6.559l-5.556-13.667 12.467-5.739 7.181 19.132s4.337 14.486-15.447 15.99c0 0-24.392-.137-26.289-.137l-.271-9.02z" fill="#EEB3B3"/><path d="M494.657 312.41c16.939-1.503 27.915-6.559 27.915-6.559l-5.556-13.667 12.467-5.739 7.181 19.132s4.337 14.486-15.447 15.99c0 0-24.392-.137-26.289-.137l-.271-9.02z" stroke="#E92529" stroke-width="1.4" stroke-miterlimit="10" stroke-linecap="round" stroke-linejoin="round"/><path d="M492.217 324.163l-1.084 6.833h-13.551l-1.084-6.696m-1.353-14.076l-.949-5.877h20.326l-.948 5.877m23.307-18.176l-2.71-5.603v22.139m-63.283-16.536l2.981-6.97-.136 23.506" stroke="#EC2127" stroke-width="1.4" stroke-miterlimit="10" stroke-linecap="round" stroke-linejoin="round"/><path d="M473.111 312.41c-16.938-1.503-27.914-6.559-27.914-6.559l5.555-13.667-12.466-5.739-7.182 19.132s-4.336 14.486 15.448 15.99c0 0 24.391-.137 26.288-.137l.271-9.02z" fill="#EEB3B3"/><path d="M473.111 312.41c-16.938-1.503-27.914-6.559-27.914-6.559l5.555-13.667-12.466-5.739-7.182 19.132s-4.336 14.486 15.448 15.99c0 0 24.391-.137 26.288-.137l.271-9.02z" stroke="#E92529" stroke-width="1.4" stroke-miterlimit="10" stroke-linecap="round" stroke-linejoin="round"/><path d="M481.105 313.504h-7.995c-.406 0-.677-.274-.677-.684v-1.64c0-.41.271-.683.677-.683h7.995c.407 0 .678.273.678.683v1.64c0 .41-.271.684-.678.684z" fill="#EEB3B3"/><path d="M481.105 313.504h-7.995c-.406 0-.677-.274-.677-.684v-1.64c0-.41.271-.683.677-.683h7.995c.407 0 .678.273.678.683v1.64c0 .41-.271.684-.678.684z" stroke="#E92529" stroke-width="1.4" stroke-miterlimit="10" stroke-linecap="round" stroke-linejoin="round"/><path d="M481.105 317.057h-7.995c-.406 0-.677-.273-.677-.683v-1.64c0-.41.271-.684.677-.684h7.995c.407 0 .678.274.678.684v1.64c0 .41-.271.683-.678.683z" fill="#EEB3B3"/><path d="M481.105 317.057h-7.995c-.406 0-.677-.273-.677-.683v-1.64c0-.41.271-.684.677-.684h7.995c.407 0 .678.274.678.684v1.64c0 .41-.271.683-.678.683z" stroke="#E92529" stroke-width="1.4" stroke-miterlimit="10" stroke-linecap="round" stroke-linejoin="round"/><path d="M481.105 320.473h-7.995c-.406 0-.677-.273-.677-.683v-1.64c0-.41.271-.683.677-.683h7.995c.407 0 .678.273.678.683v1.64c0 .273-.271.683-.678.683z" fill="#EEB3B3"/><path d="M481.105 320.473h-7.995c-.406 0-.677-.273-.677-.683v-1.64c0-.41.271-.683.677-.683h7.995c.407 0 .678.273.678.683v1.64c0 .273-.271.683-.678.683z" stroke="#E92529" stroke-width="1.4" stroke-miterlimit="10" stroke-linecap="round" stroke-linejoin="round"/><path d="M481.105 324.027h-7.995c-.406 0-.677-.274-.677-.684v-1.64c0-.41.271-.683.677-.683h7.995c.407 0 .678.273.678.683v1.64c0 .41-.271.684-.678.684z" fill="#EEB3B3"/><path d="M481.105 324.027h-7.995c-.406 0-.677-.274-.677-.684v-1.64c0-.41.271-.683.677-.683h7.995c.407 0 .678.273.678.683v1.64c0 .41-.271.684-.678.684z" stroke="#E92529" stroke-width="1.4" stroke-miterlimit="10" stroke-linecap="round" stroke-linejoin="round"/><path d="M494.793 313.504h-7.995c-.407 0-.678-.274-.678-.684v-1.64c0-.41.271-.683.678-.683h7.995c.406 0 .677.273.677.683v1.64c0 .41-.271.684-.677.684z" fill="#EEB3B3"/><path d="M494.793 313.504h-7.995c-.407 0-.678-.274-.678-.684v-1.64c0-.41.271-.683.678-.683h7.995c.406 0 .677.273.677.683v1.64c0 .41-.271.684-.677.684z" stroke="#E92529" stroke-width="1.4" stroke-miterlimit="10" stroke-linecap="round" stroke-linejoin="round"/><path d="M494.793 317.057h-7.995c-.407 0-.678-.273-.678-.683v-1.64c0-.41.271-.684.678-.684h7.995c.406 0 .677.274.677.684v1.64c0 .41-.271.683-.677.683z" fill="#EEB3B3"/><path d="M494.793 317.057h-7.995c-.407 0-.678-.273-.678-.683v-1.64c0-.41.271-.684.678-.684h7.995c.406 0 .677.274.677.684v1.64c0 .41-.271.683-.677.683z" stroke="#E92529" stroke-width="1.4" stroke-miterlimit="10" stroke-linecap="round" stroke-linejoin="round"/><path d="M494.793 320.473h-7.995c-.407 0-.678-.273-.678-.683v-1.64c0-.41.271-.683.678-.683h7.995c.406 0 .677.273.677.683v1.64c0 .273-.271.683-.677.683z" fill="#EEB3B3"/><path d="M494.793 320.473h-7.995c-.407 0-.678-.273-.678-.683v-1.64c0-.41.271-.683.678-.683h7.995c.406 0 .677.273.677.683v1.64c0 .273-.271.683-.677.683z" stroke="#E92529" stroke-width="1.4" stroke-miterlimit="10" stroke-linecap="round" stroke-linejoin="round"/><path d="M494.793 324.027h-7.995c-.407 0-.678-.274-.678-.684v-1.64c0-.41.271-.683.678-.683h7.995c.406 0 .677.273.677.683v1.64c0 .41-.271.684-.677.684z" fill="#EEB3B3"/><path d="M494.793 324.027h-7.995c-.407 0-.678-.274-.678-.684v-1.64c0-.41.271-.683.678-.683h7.995c.406 0 .677.273.677.683v1.64c0 .41-.271.684-.677.684z" stroke="#E92529" stroke-width="1.4" stroke-miterlimit="10" stroke-linecap="round" stroke-linejoin="round"/></svg>